HIERARCHY
ROOT Hips
{
	OFFSET 0.000000 0.000000 0.000000
	CHANNELS 6 Xposition Yposition Zposition Zrotation Yrotation Xrotation 
	JOINT LHipJoint
	{
		OFFSET 0.000000 0.000000 0.000000
		CHANNELS 3 Zrotation Yrotation Xrotation
		JOINT LeftUpLeg
		{
			OFFSET 1.363060 -1.794630 0.839290
			CHANNELS 3 Zrotation Yrotation Xrotation
			JOINT LeftLeg
			{
				OFFSET 2.448110 -6.726130 0.000000
				CHANNELS 3 Zrotation Yrotation Xrotation
				JOINT LeftFoot
				{
					OFFSET 2.562200 -7.039590 0.000000
					CHANNELS 3 Zrotation Yrotation Xrotation
					JOINT LeftToeBase
					{
						OFFSET 0.157640 -0.433110 2.322550
						CHANNELS 3 Zrotation Yrotation Xrotation
						End Site
						{
							OFFSET 0.000000 0.000000 0.000000
						}
					}
				}
			}
		}
	}
	JOINT RHipJoint
	{
		OFFSET 0.000000 0.000000 0.000000
		CHANNELS 3 Zrotation Yrotation Xrotation
		JOINT RightUpLeg
		{
			OFFSET -1.305520 -1.794630 0.839290
			CHANNELS 3 Zrotation Yrotation Xrotation
			JOINT RightLeg
			{
				OFFSET -2.542530 -6.985550 0.000000
				CHANNELS 3 Zrotation Yrotation Xrotation
				JOINT RightFoot
				{
					OFFSET -2.568260 -7.056230 0.000000
					CHANNELS 3 Zrotation Yrotation Xrotation
					JOINT RightToeBase
					{
						OFFSET -0.164730 -0.452590 2.363150
						CHANNELS 3 Zrotation Yrotation Xrotation
						End Site
						{
							OFFSET 0.000000 0.000000 0.000000
						}
					}
				}
			}
		}
	}
	JOINT LowerBack
	{
		OFFSET 0.000000 0.000000 0.000000
		CHANNELS 3 Zrotation Yrotation Xrotation
		JOINT Spine
		{
			OFFSET 0.028270 2.035590 -0.193380
			CHANNELS 3 Zrotation Yrotation Xrotation
			JOINT Spine1
			{
				OFFSET 0.056720 2.048850 -0.042750
				CHANNELS 3 Zrotation Yrotation Xrotation
				JOINT Neck
				{
					OFFSET 0.000000 0.000000 0.000000
					CHANNELS 3 Zrotation Yrotation Xrotation
					JOINT Neck1
					{
						OFFSET -0.054170 1.746240 0.172020
						CHANNELS 3 Zrotation Yrotation Xrotation
						JOINT Head
						{
							OFFSET 0.104070 1.761360 -0.123970
							CHANNELS 3 Zrotation Yrotation Xrotation
							End Site
							{
								OFFSET 0.000000 0.000000 0.000000
							}
						}
					}
				}
				JOINT LeftShoulder
				{
					OFFSET 0.000000 0.000000 0.000000
					CHANNELS 3 Zrotation Yrotation Xrotation
					JOINT LeftArm
					{
						OFFSET 3.362410 1.200890 -0.311210
						CHANNELS 3 Zrotation Yrotation Xrotation
						JOINT LeftForeArm
						{
							OFFSET 4.983000 -0.000000 -0.000000
							CHANNELS 3 Zrotation Yrotation Xrotation
							JOINT LeftHand
							{
								OFFSET 3.483560 -0.000000 -0.000000
								CHANNELS 3 Zrotation Yrotation Xrotation
								JOINT LeftFingerBase
								{
									OFFSET 0.000000 0.000000 0.000000
									CHANNELS 3 Zrotation Yrotation Xrotation
									JOINT LeftHandIndex1
									{
										OFFSET 0.715260 -0.000000 -0.000000
										CHANNELS 3 Zrotation Yrotation Xrotation
										End Site
										{
											OFFSET 0.000000 0.000000 0.000000
										}
									}
								}
								JOINT LThumb
								{
									OFFSET 0.000000 0.000000 0.000000
									CHANNELS 3 Zrotation Yrotation Xrotation
									End Site
									{
										OFFSET 0.000000 0.000000 0.000000
									}
								}
							}
						}
					}
				}
				JOINT RightShoulder
				{
					OFFSET 0.000000 0.000000 0.000000
					CHANNELS 3 Zrotation Yrotation Xrotation
					JOINT RightArm
					{
						OFFSET -3.136600 1.374050 -0.404650
						CHANNELS 3 Zrotation Yrotation Xrotation
						JOINT RightForeArm
						{
							OFFSET -5.241900 -0.000000 -0.000000
							CHANNELS 3 Zrotation Yrotation Xrotation
							JOINT RightHand
							{
								OFFSET -3.444170 -0.000000 -0.000000
								CHANNELS 3 Zrotation Yrotation Xrotation
								JOINT RightFingerBase
								{
									OFFSET 0.000000 0.000000 0.000000
									CHANNELS 3 Zrotation Yrotation Xrotation
									JOINT RightHandIndex1
									{
										OFFSET -0.622530 -0.000000 -0.000000
										CHANNELS 3 Zrotation Yrotation Xrotation
										End Site
										{
											OFFSET 0.000000 0.000000 0.000000
										}
									}
								}
								JOINT RThumb
								{
									OFFSET 0.000000 0.000000 0.000000
									CHANNELS 3 Zrotation Yrotation Xrotation
									End Site
									{
										OFFSET 0.000000 0.000000 0.000000
									}
								}
							}
						}
					}
				}
			}
		}
	}
}
MOTION
Frames: 7
Frame Time: 0.008333
1.656534 15.382781 -0.800703 140.328560 -84.575388 -94.883721 -9.196922 -2.702212 0.745188 -10.628357 -3.325383 -90.744074 0.894305 6.178111 70.370209 3.847103 18.001885 -2.068337 3.028900 -0.000000 -46.780600 7.338562 0.517949 0.945919 15.182836 5.481385 -80.285907 1.922250 -5.566022 60.306181 -2.295386 -2.015880 -25.100180 1.284900 0.000000 -44.541100 2.864844 -2.503046 1.402659 0.176603 -2.604876 -2.505368 -4.811368 -2.587392 0.650564 10.984275 -17.320639 -12.518647 -1.135350 0.028663 -1.863200 0.000000 0.000000 0.000000 8.862198 12.458605 2.425066 -73.869212 14.233521 6.902327 -0.009949 -88.156879 -0.006768 1.359043 3.084705 0.035550 -0.045514 0.270980 0.000000 0.000000 0.000000 0.000000 0.000000 0.000000 0.000000 6.078641 -11.773344 0.415497 68.148409 2.747188 13.503137 179.675057 79.637115 179.910024 -13.176494 1.263456 -0.199453 0.303947 -0.438614 0.000000 0.000000 0.000000 0.000000 0.000000 0.000000 0.000000 
1.655124 15.415055 -0.824822 138.138747 -84.595437 -93.669481 -9.153672 -2.845433 0.637922 -10.761315 -3.340795 -90.859741 1.193295 6.234703 72.170179 3.917410 18.897085 0.026213 3.780800 -0.000000 -45.914600 7.380945 0.508179 0.760363 15.371271 4.817557 -79.034417 1.938344 -5.533241 60.146025 -2.275732 -1.996601 -25.144513 1.287900 -0.000001 -44.945700 2.836109 -2.569211 1.605571 0.160838 -2.663096 -2.439423 -4.863301 -2.641187 0.756774 11.037706 -17.571220 -12.495354 -1.116611 0.028972 -1.837155 0.000000 0.000000 0.000000 9.006244 12.565866 2.397119 -73.900531 14.920931 7.386024 -0.051996 -87.305879 -0.006097 1.264537 3.048471 0.032932 -0.045502 0.260348 0.000000 0.000000 0.000000 0.000000 0.000000 0.000000 0.000000 6.147562 -12.098573 0.329890 68.205935 2.828840 13.836738 179.661338 79.494384 179.912673 -12.878077 1.296477 -0.198447 0.299382 -0.437072 0.000000 0.000000 0.000000 0.000000 0.000000 0.000000 0.000000 
1.655020 15.449504 -0.849532 136.004622 -84.581422 -92.525331 -9.090696 -2.966243 0.503214 -11.051387 -3.342179 -91.006457 1.472040 6.300994 74.005789 3.965275 19.659163 2.086563 4.533000 -0.000000 -44.627700 7.441244 0.512885 0.579641 15.487944 4.142286 -77.763535 1.951835 -5.494096 59.945306 -2.256203 -1.990171 -25.167441 1.290000 0.000000 -45.360400 2.760444 -2.630165 1.833597 0.134155 -2.712892 -2.368570 -4.914363 -2.686065 0.859819 11.085615 -17.821106 -12.462946 -1.097938 0.029172 -1.809141 0.000000 0.000000 0.000000 9.164902 12.670294 2.363498 -73.931639 15.600458 7.840856 -0.092191 -86.508619 -0.005595 1.198075 2.991879 0.030813 -0.045850 0.250257 0.000000 0.000000 0.000000 0.000000 0.000000 0.000000 0.000000 6.204683 -12.421691 0.242352 68.309346 2.899533 14.142834 179.649203 79.335533 179.915129 -12.594707 1.327051 -0.197342 0.294670 -0.435775 0.000000 0.000000 0.000000 0.000000 0.000000 0.000000 0.000000 
1.656063 15.485728 -0.874668 134.029005 -84.532941 -91.538984 -9.011588 -3.062673 0.344573 -11.486941 -3.332126 -91.196484 1.732002 6.378396 75.860731 3.990873 20.273287 4.051660 5.249700 -0.000000 -43.026300 7.515742 0.532821 0.407783 15.526499 3.480100 -76.482217 1.960383 -5.446177 59.703964 -2.240275 -2.011460 -25.167417 1.293800 0.000000 -45.783900 2.638726 -2.684355 2.080911 0.097089 -2.753088 -2.294323 -4.963905 -2.720927 0.958823 11.128153 -18.065399 -12.422860 -1.079235 0.029307 -1.779807 0.000000 0.000000 0.000000 9.337712 12.775458 2.325592 -73.964212 16.269371 8.262975 -0.130151 -85.766954 -0.005243 1.159976 2.914603 0.029197 -0.046538 0.240782 0.000000 0.000000 0.000000 0.000000 0.000000 0.000000 0.000000 6.248990 -12.736068 0.153665 68.454107 2.956987 14.424757 179.638971 79.162986 179.917304 -12.336360 1.354383 -0.196240 0.290031 -0.434722 0.000000 0.000000 0.000000 0.000000 0.000000 0.000000 0.000000 
1.658351 15.523523 -0.899898 132.222882 -84.455463 -90.710423 -8.919403 -3.135968 0.167744 -12.048068 -3.322747 -91.447139 1.976874 6.467055 77.720995 3.995463 20.731869 5.869232 5.898200 0.000000 -41.251100 7.600177 0.566522 0.247643 15.487708 2.850287 -75.201808 1.962864 -5.388664 59.421482 -2.230993 -2.072362 -25.145138 1.302300 0.000001 -46.205500 2.478090 -2.731947 2.340364 0.051642 -2.784498 -2.218696 -5.011486 -2.746697 1.052319 11.165841 -18.300675 -12.377360 -1.060733 0.029396 -1.749941 0.000000 0.000000 0.000000 9.522623 12.879475 2.284933 -74.001516 16.928714 8.645916 -0.165407 -85.086063 -0.005016 1.148214 2.818292 0.027982 -0.047492 0.231971 -0.000000 0.000000 0.000000 0.000000 0.000000 0.000000 0.000000 6.280931 -13.037003 0.065167 68.631353 3.001103 14.685501 179.630623 78.976489 179.919179 -12.108948 1.379540 -0.195238 0.285656 -0.433945 0.000000 0.000000 0.000000 0.000000 0.000000 0.000000 0.000000 
1.661624 15.562540 -0.924864 130.559556 -84.357144 -89.993805 -8.816389 -3.188748 -0.019783 -12.710201 -3.332319 -91.779418 2.211226 6.565957 79.572901 3.981246 21.036077 7.509544 6.456800 0.000000 -39.500700 7.690890 0.611140 0.102140 15.376165 2.269689 -73.936294 1.958922 -5.321629 59.096891 -2.230879 -2.182435 -25.100614 1.317400 -0.000000 -46.611600 2.288159 -2.773756 2.603257 0.000316 -2.808685 -2.143812 -5.056794 -2.765070 1.139441 11.199991 -18.524583 -12.329465 -1.042708 0.029468 -1.720611 0.000000 0.000000 0.000000 9.715989 12.982092 2.243192 -74.046655 17.578409 8.985900 -0.197564 -84.470140 -0.004879 1.158185 2.706277 0.027069 -0.048613 0.223857 -0.000000 0.000000 0.000000 0.000000 0.000000 0.000000 0.000000 6.303162 -13.321426 -0.021596 68.828925 3.031176 14.928444 179.623848 78.774350 179.920754 -11.913446 1.405371 -0.194737 0.281666 -0.433497 0.000000 0.000000 0.000000 0.000000 0.000000 0.000000 0.000000 
1.665907 15.602509 -0.949122 128.967188 -84.248420 -89.303920 -8.703630 -3.225474 -0.209893 -13.445822 -3.384491 -92.216625 2.439855 6.673194 81.404451 3.950547 21.192155 8.967650 6.915700 0.000000 -37.985100 7.784189 0.663381 -0.027437 15.201983 1.749661 -72.700535 1.948844 -5.246253 58.730264 -2.241670 -2.347883 -25.033609 1.340500 0.000000 -46.990799 2.081452 -2.811438 2.861651 -0.053772 -2.828060 -2.071602 -5.099671 -2.778584 1.219506 11.232442 -18.735908 -12.282859 -1.025433 0.029564 -1.692981 0.000000 0.000000 0.000000 9.914104 13.082533 2.202017 -74.102432 18.218071 9.280453 -0.226272 -83.923992 -0.004797 1.183515 2.583364 0.026459 -0.049779 0.216443 -0.000000 0.000000 0.000000 0.000000 0.000000 0.000000 0.000000 6.318642 -13.587561 -0.105178 69.033665 3.048225 15.155974 179.618051 78.551551 179.922063 -11.746307 1.435891 -0.195135 0.278107 -0.433467 0.000000 0.000000 0.000000 0.000000 0.000000 0.000000 0.000000 
